<svg width="47" height="35" viewBox="0 0 47 35" fill="none" xmlns="http://www.w3.org/2000/svg">
<path d="M0.125 34.5V28.55C0.125 27.3458 0.434896 26.2391 1.05469 25.2297C1.67448 24.2203 2.49792 23.45 3.525 22.9188C5.72083 21.8208 7.95208 20.9974 10.2188 20.4484C12.4854 19.8995 14.7875 19.625 17.125 19.625C19.4625 19.625 21.7646 19.8995 24.0313 20.4484C26.2979 20.9974 28.5292 21.8208 30.725 22.9188C31.7521 23.45 32.5755 24.2203 33.1953 25.2297C33.8151 26.2391 34.125 27.3458 34.125 28.55V34.5H0.125ZM38.375 34.5V28.125C38.375 26.5667 37.9412 25.0703 37.0734 23.6359C36.2057 22.2016 34.975 20.9708 33.3813 19.9438C35.1875 20.1562 36.8875 20.5193 38.4813 21.0328C40.075 21.5464 41.5625 22.175 42.9438 22.9188C44.2188 23.6271 45.1927 24.4151 45.8656 25.2828C46.5385 26.1505 46.875 27.0979 46.875 28.125V34.5H38.375ZM17.125 17.5C14.7875 17.5 12.7865 16.6677 11.1219 15.0031C9.45729 13.3385 8.625 11.3375 8.625 9C8.625 6.6625 9.45729 4.66146 11.1219 2.99688C12.7865 1.33229 14.7875 0.5 17.125 0.5C19.4625 0.5 21.4635 1.33229 23.1281 2.99688C24.7927 4.66146 25.625 6.6625 25.625 9C25.625 11.3375 24.7927 13.3385 23.1281 15.0031C21.4635 16.6677 19.4625 17.5 17.125 17.5ZM38.375 9C38.375 11.3375 37.5427 13.3385 35.8781 15.0031C34.2135 16.6677 32.2125 17.5 29.875 17.5C29.4854 17.5 28.9896 17.4557 28.3875 17.3672C27.7854 17.2786 27.2896 17.1812 26.9 17.075C27.8563 15.9417 28.5911 14.6844 29.1047 13.3031C29.6182 11.9219 29.875 10.4875 29.875 9C29.875 7.5125 29.6182 6.07812 29.1047 4.69688C28.5911 3.31563 27.8563 2.05833 26.9 0.925C27.3958 0.747917 27.8917 0.632812 28.3875 0.579688C28.8833 0.526563 29.3792 0.5 29.875 0.5C32.2125 0.5 34.2135 1.33229 35.8781 2.99688C37.5427 4.66146 38.375 6.6625 38.375 9ZM4.375 30.25H29.875V28.55C29.875 28.1604 29.7776 27.8063 29.5828 27.4875C29.388 27.1688 29.1313 26.9208 28.8125 26.7438C26.9 25.7875 24.9698 25.0703 23.0219 24.5922C21.074 24.1141 19.1083 23.875 17.125 23.875C15.1417 23.875 13.176 24.1141 11.2281 24.5922C9.28021 25.0703 7.35 25.7875 5.4375 26.7438C5.11875 26.9208 4.86198 27.1688 4.66719 27.4875C4.4724 27.8063 4.375 28.1604 4.375 28.55V30.25ZM17.125 13.25C18.2938 13.25 19.2943 12.8339 20.1266 12.0016C20.9589 11.1693 21.375 10.1687 21.375 9C21.375 7.83125 20.9589 6.83073 20.1266 5.99844C19.2943 5.16615 18.2938 4.75 17.125 4.75C15.9563 4.75 14.9557 5.16615 14.1234 5.99844C13.2911 6.83073 12.875 7.83125 12.875 9C12.875 10.1687 13.2911 11.1693 14.1234 12.0016C14.9557 12.8339 15.9563 13.25 17.125 13.25Z" fill="#0D0850"/>
</svg>
