<svg width="37" height="38" viewBox="0 0 37 38" fill="none" xmlns="http://www.w3.org/2000/svg">
<path d="M13.3958 28.375L27.6875 19L13.3958 9.625V28.375ZM4.20833 37.75C3.08542 37.75 2.12413 37.342 1.32448 36.526C0.524826 35.7101 0.125 34.7292 0.125 33.5833V4.41667C0.125 3.27083 0.524826 2.28993 1.32448 1.47396C2.12413 0.657986 3.08542 0.25 4.20833 0.25H32.7917C33.9146 0.25 34.8759 0.657986 35.6755 1.47396C36.4752 2.28993 36.875 3.27083 36.875 4.41667V33.5833C36.875 34.7292 36.4752 35.7101 35.6755 36.526C34.8759 37.342 33.9146 37.75 32.7917 37.75H4.20833ZM4.20833 33.5833H32.7917V4.41667H4.20833V33.5833Z" fill="#0D0850"/>
</svg>
