<svg width="34" height="42" viewBox="0 0 34 42" fill="none" xmlns="http://www.w3.org/2000/svg">
<path d="M0.333374 35.5833V31.4167H4.50004V16.8333C4.50004 13.9514 5.3681 11.3906 7.10421 9.15103C8.84032 6.91145 11.0973 5.44443 13.875 4.74999V3.29166C13.875 2.4236 14.1789 1.68575 14.7865 1.07811C15.3941 0.470476 16.132 0.166656 17 0.166656C17.8681 0.166656 18.6059 0.470476 19.2136 1.07811C19.8212 1.68575 20.125 2.4236 20.125 3.29166V4.74999C22.9028 5.44443 25.1598 6.91145 26.8959 9.15103C28.632 11.3906 29.5 13.9514 29.5 16.8333V31.4167H33.6667V35.5833H0.333374ZM17 41.8333C15.8542 41.8333 14.8733 41.4253 14.0573 40.6094C13.2414 39.7934 12.8334 38.8125 12.8334 37.6667H21.1667C21.1667 38.8125 20.7587 39.7934 19.9427 40.6094C19.1268 41.4253 18.1459 41.8333 17 41.8333ZM8.66671 31.4167H25.3334V16.8333C25.3334 14.5417 24.5174 12.5799 22.8855 10.9479C21.2535 9.31596 19.2917 8.49999 17 8.49999C14.7084 8.49999 12.7466 9.31596 11.1146 10.9479C9.48268 12.5799 8.66671 14.5417 8.66671 16.8333V31.4167Z" fill="#0D0850"/>
</svg>
