<svg width="111" height="88" viewBox="0 0 111 88" fill="none" xmlns="http://www.w3.org/2000/svg">
<g clip-path="url(#clip0_40_354)">
<path d="M18.1962 0H55.4091C60.9389 -2.71627e-06 66.2936 1.93904 70.5414 5.47969L107.315 36.1315C108.469 37.0928 109.396 38.2959 110.033 39.6557C110.67 41.0154 111 42.4985 111 44C111 45.5015 110.67 46.9846 110.033 48.3443C109.396 49.7041 108.469 50.9072 107.315 51.8685L70.5414 82.5203C66.2936 86.061 60.9389 88 55.4091 88H18.1962C17.3172 88 16.4499 87.7995 15.6602 87.4137C14.8704 87.028 14.179 86.4671 13.6387 85.7739C13.0983 85.0806 12.7232 84.2733 12.5418 83.4132C12.3605 82.5531 12.3777 81.6629 12.5922 80.8105L19.8137 52.1079C21.1528 46.7856 21.1528 41.2144 19.8137 35.8921L12.5922 7.1895C12.3777 6.33706 12.3605 5.44694 12.5418 4.58684C12.7232 3.72675 13.0983 2.91936 13.6387 2.22611C14.179 1.53286 14.8704 0.97202 15.6602 0.586263C16.4499 0.200506 17.3172 -3.64238e-08 18.1962 0Z" fill="#8B30C4"/>
<path d="M7.47138 0H14.2884C16.067 4.11762e-07 17.8081 0.511586 19.304 1.47375C20.7999 2.43592 21.9876 3.80807 22.7254 5.42658L36.7319 36.1538C37.8548 38.6171 38.4359 41.2928 38.4359 44C38.4359 46.7072 37.8548 49.3829 36.7319 51.8463L22.7254 82.5734C21.9876 84.1919 20.7999 85.5641 19.304 86.5262C17.8081 87.4884 16.067 88 14.2884 88H7.47138C6.29527 88 5.13578 87.7223 4.08724 87.1895C3.0387 86.6568 2.13073 85.8839 1.43722 84.934C0.743716 83.984 0.284259 82.8837 0.0962266 81.7226C-0.0918055 80.5615 -0.00309896 79.3724 0.355135 78.2521L8.79849 51.8466C10.4304 46.7428 10.4304 41.2572 8.79849 36.1535L0.355135 9.7479C-0.00309896 8.62757 -0.0918055 7.43848 0.0962266 6.27739C0.284259 5.1163 0.743716 4.016 1.43722 3.06603C2.13073 2.11605 3.0387 1.34323 4.08724 0.810459C5.13578 0.277683 6.29527 2.86866e-07 7.47138 0Z" fill="#C66DC4"/>
<path d="M16.4994 0.267517C13.5961 1.17815 11.8761 4.23219 12.5921 7.18977L19.8139 35.892C21.153 41.2145 21.153 46.7857 19.8139 52.1082L12.5921 80.8104C11.8762 83.7685 13.5669 86.8295 16.471 87.7394C19.2234 87.0782 21.533 85.1412 22.7251 82.5735L36.732 51.8464C39.004 46.8623 39.004 41.1379 36.732 36.1538L22.7251 5.42672C21.5326 2.85862 19.2524 0.928266 16.4994 0.267517Z" fill="#AC4ACD"/>
</g>
<defs>
<clipPath id="clip0_40_354">
<rect width="111" height="88" fill="white"/>
</clipPath>
</defs>
</svg>
