<svg width="243" height="193" viewBox="0 0 243 193" fill="none" xmlns="http://www.w3.org/2000/svg">
<g clip-path="url(#clip0_7_3)">
<path d="M39.8348 0H121.301C133.407 -5.95727e-06 145.129 4.25266 154.428 12.018L234.933 79.243C237.458 81.3513 239.489 83.9899 240.883 86.9721C242.277 89.9543 243 93.207 243 96.5C243 99.793 242.277 103.046 240.883 106.028C239.489 109.01 237.458 111.649 234.933 113.757L154.428 180.982C145.129 188.747 133.407 193 121.301 193H39.8348C37.9107 193 36.012 192.56 34.2831 191.714C32.5541 190.868 31.0406 189.638 29.8576 188.118C28.6747 186.597 27.8534 184.827 27.4564 182.94C27.0594 181.054 27.0971 179.102 27.5666 177.232L43.3759 114.282C46.3075 102.609 46.3075 90.3907 43.3759 78.7179L27.5666 15.7679C27.0971 13.8983 27.0594 11.9461 27.4564 10.0598C27.8534 8.17344 28.6747 6.40269 29.8576 4.88227C31.0406 3.36184 32.5541 2.13182 34.2831 1.28578C36.012 0.439746 37.9107 -7.98839e-08 39.8348 0Z" fill="#8B30C4"/>
<path d="M16.3561 0H31.28C35.1736 9.03068e-07 38.9851 1.122 42.26 3.23221C45.5348 5.34242 48.1348 8.35179 49.75 11.9015L80.4129 79.2917C82.8711 84.6943 84.1432 90.5626 84.1432 96.5C84.1432 102.437 82.8711 108.306 80.4129 113.708L49.75 181.099C48.1348 184.648 45.5348 187.658 42.26 189.768C38.9851 191.878 35.1736 193 31.28 193H16.3561C13.7814 193 11.243 192.391 8.94759 191.223C6.65215 190.054 4.66443 188.359 3.14621 186.276C1.62799 184.192 0.622151 181.779 0.210513 179.233C-0.201125 176.686 -0.00692937 174.078 0.777312 171.621L19.2614 113.709C22.8341 102.516 22.8341 90.4845 19.2614 79.2911L0.777312 21.3789C-0.00692937 18.9218 -0.201125 16.3139 0.210513 13.7675C0.622151 11.221 1.62799 8.80782 3.14621 6.72435C4.66443 4.64088 6.65215 2.94596 8.94759 1.77748C11.243 0.60901 13.7814 6.2915e-07 16.3561 0Z" fill="#C66DC4"/>
<path d="M36.1203 0.58667C29.7644 2.58385 25.999 9.28193 27.5665 15.7684L43.3763 78.7177C46.308 90.3908 46.308 102.61 43.3763 114.283L27.5665 177.232C25.9994 183.72 29.7007 190.433 36.0581 192.428C42.0836 190.978 47.1399 186.73 49.7497 181.099L80.4134 113.708C85.3871 102.777 85.3871 90.2229 80.4134 79.2919L49.7497 11.9017C47.139 6.26943 42.1472 2.03581 36.1203 0.58667Z" fill="#AC4ACD"/>
</g>
<defs>
<clipPath id="clip0_7_3">
<rect width="243" height="193" fill="white"/>
</clipPath>
</defs>
</svg>
