<svg width="101" height="83" viewBox="0 0 101 83" fill="none" xmlns="http://www.w3.org/2000/svg">
<path d="M10.5 82.5C7.75 82.5 5.39583 81.4964 3.4375 79.4891C1.47917 77.4818 0.5 75.0687 0.5 72.25V10.75C0.5 7.93125 1.47917 5.51823 3.4375 3.51094C5.39583 1.50365 7.75 0.5 10.5 0.5H90.5C93.25 0.5 95.6042 1.50365 97.5625 3.51094C99.5208 5.51823 100.5 7.93125 100.5 10.75V72.25C100.5 75.0687 99.5208 77.4818 97.5625 79.4891C95.6042 81.4964 93.25 82.5 90.5 82.5H10.5ZM10.5 72.25H90.5V21H10.5V72.25ZM28 67.125L21 59.95L33.875 46.625L20.875 33.3L28 26.125L48 46.625L28 67.125ZM50.5 67.125V56.875H80.5V67.125H50.5Z" fill="#0D0850"/>
</svg>
