<svg width="101" height="101" viewBox="0 0 101 101" fill="none" xmlns="http://www.w3.org/2000/svg">
<path d="M50.5 100.5C43.6667 100.5 37.2083 99.1875 31.125 96.5625C25.0417 93.9375 19.7292 90.3542 15.1875 85.8125C10.6458 81.2708 7.0625 75.9583 4.4375 69.875C1.8125 63.7917 0.5 57.3333 0.5 50.5C0.5 43.5833 1.85417 37.0833 4.5625 31C7.27083 24.9167 10.9375 19.625 15.5625 15.125C20.1875 10.625 25.5833 7.0625 31.75 4.4375C37.9167 1.8125 44.5 0.5 51.5 0.5C58.1667 0.5 64.4583 1.64583 70.375 3.9375C76.2917 6.22917 81.4792 9.39583 85.9375 13.4375C90.3958 17.4792 93.9375 22.2708 96.5625 27.8125C99.1875 33.3542 100.5 39.3333 100.5 45.75C100.5 55.3333 97.5833 62.6875 91.75 67.8125C85.9167 72.9375 78.8333 75.5 70.5 75.5H61.25C60.5 75.5 59.9792 75.7083 59.6875 76.125C59.3958 76.5417 59.25 77 59.25 77.5C59.25 78.5 59.875 79.9375 61.125 81.8125C62.375 83.6875 63 85.8333 63 88.25C63 92.4167 61.8542 95.5 59.5625 97.5C57.2708 99.5 54.25 100.5 50.5 100.5ZM23 55.5C25.1667 55.5 26.9583 54.7917 28.375 53.375C29.7917 51.9583 30.5 50.1667 30.5 48C30.5 45.8333 29.7917 44.0417 28.375 42.625C26.9583 41.2083 25.1667 40.5 23 40.5C20.8333 40.5 19.0417 41.2083 17.625 42.625C16.2083 44.0417 15.5 45.8333 15.5 48C15.5 50.1667 16.2083 51.9583 17.625 53.375C19.0417 54.7917 20.8333 55.5 23 55.5ZM38 35.5C40.1667 35.5 41.9583 34.7917 43.375 33.375C44.7917 31.9583 45.5 30.1667 45.5 28C45.5 25.8333 44.7917 24.0417 43.375 22.625C41.9583 21.2083 40.1667 20.5 38 20.5C35.8333 20.5 34.0417 21.2083 32.625 22.625C31.2083 24.0417 30.5 25.8333 30.5 28C30.5 30.1667 31.2083 31.9583 32.625 33.375C34.0417 34.7917 35.8333 35.5 38 35.5ZM63 35.5C65.1667 35.5 66.9583 34.7917 68.375 33.375C69.7917 31.9583 70.5 30.1667 70.5 28C70.5 25.8333 69.7917 24.0417 68.375 22.625C66.9583 21.2083 65.1667 20.5 63 20.5C60.8333 20.5 59.0417 21.2083 57.625 22.625C56.2083 24.0417 55.5 25.8333 55.5 28C55.5 30.1667 56.2083 31.9583 57.625 33.375C59.0417 34.7917 60.8333 35.5 63 35.5ZM78 55.5C80.1667 55.5 81.9583 54.7917 83.375 53.375C84.7917 51.9583 85.5 50.1667 85.5 48C85.5 45.8333 84.7917 44.0417 83.375 42.625C81.9583 41.2083 80.1667 40.5 78 40.5C75.8333 40.5 74.0417 41.2083 72.625 42.625C71.2083 44.0417 70.5 45.8333 70.5 48C70.5 50.1667 71.2083 51.9583 72.625 53.375C74.0417 54.7917 75.8333 55.5 78 55.5ZM50.5 90.5C51.25 90.5 51.8542 90.2917 52.3125 89.875C52.7708 89.4583 53 88.9167 53 88.25C53 87.0833 52.375 85.7083 51.125 84.125C49.875 82.5417 49.25 80.1667 49.25 77C49.25 73.5 50.4583 70.7083 52.875 68.625C55.2917 66.5417 58.25 65.5 61.75 65.5H70.5C76 65.5 80.7083 63.8958 84.625 60.6875C88.5417 57.4792 90.5 52.5 90.5 45.75C90.5 35.6667 86.6458 27.2708 78.9375 20.5625C71.2292 13.8542 62.0833 10.5 51.5 10.5C40.1667 10.5 30.5 14.375 22.5 22.125C14.5 29.875 10.5 39.3333 10.5 50.5C10.5 61.5833 14.3958 71.0208 22.1875 78.8125C29.9792 86.6042 39.4167 90.5 50.5 90.5Z" fill="#0D0850"/>
</svg>
