<svg width="43" height="35" viewBox="0 0 43 35" fill="none" xmlns="http://www.w3.org/2000/svg">
<path d="M7.04893 0H21.4648C23.6069 -1.05437e-06 25.6813 0.752675 27.3268 2.12705L41.5726 14.0252C42.0194 14.3983 42.3788 14.8653 42.6255 15.3931C42.8721 15.9209 43 16.4966 43 17.0795C43 17.6623 42.8721 18.238 42.6255 18.7658C42.3788 19.2936 42.0194 19.7606 41.5726 20.1338L27.3268 32.0319C25.6813 33.4062 23.6069 34.1589 21.4648 34.1589H7.04893C6.70845 34.1589 6.37246 34.0811 6.06652 33.9313C5.76058 33.7816 5.49275 33.5639 5.28342 33.2948C5.07408 33.0257 4.92876 32.7123 4.85851 32.3784C4.78826 32.0446 4.79493 31.6991 4.87801 31.3682L7.67555 20.2267C8.19429 18.1607 8.19429 15.9982 7.67555 13.9322L4.87801 2.79074C4.79493 2.45985 4.78826 2.11433 4.85851 1.78047C4.92876 1.44661 5.07408 1.13321 5.28342 0.864108C5.49275 0.59501 5.76058 0.377309 6.06652 0.227569C6.37246 0.0778304 6.70845 -1.41386e-08 7.04893 0Z" fill="#8B30C4"/>
<path d="M2.89427 0H5.53512C6.22412 1.59833e-07 6.89859 0.198582 7.47809 0.572066C8.05759 0.945551 8.51767 1.47818 8.80348 2.10643L14.2294 14.0338C14.6644 14.99 14.8895 16.0286 14.8895 17.0795C14.8895 18.1303 14.6644 19.1689 14.2294 20.1251L8.80348 32.0525C8.51767 32.6807 8.05759 33.2134 7.47809 33.5868C6.89859 33.9603 6.22412 34.1589 5.53512 34.1589H2.89427C2.43866 34.1589 1.98949 34.0511 1.5833 33.8443C1.17711 33.6375 0.825372 33.3375 0.556716 32.9688C0.288059 32.6 0.110071 32.1729 0.0372297 31.7222C-0.0356116 31.2715 -0.00124779 30.81 0.137527 30.3751L3.40838 20.1252C4.04058 18.1441 4.04058 16.0148 3.40838 14.0337L0.137527 3.78384C-0.00124779 3.34896 -0.0356116 2.88739 0.0372297 2.43669C0.110071 1.98599 0.288059 1.55889 0.556716 1.19014C0.825372 0.821386 1.17711 0.521403 1.5833 0.314595C1.98949 0.107788 2.43866 1.11353e-07 2.89427 0Z" fill="#C66DC4"/>
<path d="M6.39162 0.10376C5.26692 0.457239 4.60062 1.64273 4.87798 2.79077L7.67561 13.9321C8.19438 15.9981 8.19438 18.1607 7.67561 20.2267L4.87798 31.3681C4.60067 32.5163 5.25564 33.7045 6.38061 34.0577C7.44686 33.801 8.34159 33.0491 8.80341 32.0524L14.2295 20.1251C15.1096 18.1904 15.1096 15.9684 14.2295 14.0337L8.80341 2.1064C8.34144 1.10955 7.45812 0.360242 6.39162 0.10376Z" fill="#AC4ACD"/>
</svg>
