<svg width="34" height="42" viewBox="0 0 34 42" fill="none" xmlns="http://www.w3.org/2000/svg">
<path d="M0.333313 35.5832V31.4165H4.49998V16.8332C4.49998 13.9512 5.36804 11.3905 7.10415 9.15088C8.84026 6.91129 11.0972 5.44428 13.875 4.74984V3.2915C13.875 2.42345 14.1788 1.6856 14.7864 1.07796C15.3941 0.470323 16.1319 0.166504 17 0.166504C17.868 0.166504 18.6059 0.470323 19.2135 1.07796C19.8212 1.6856 20.125 2.42345 20.125 3.2915V4.74984C22.9028 5.44428 25.1597 6.91129 26.8958 9.15088C28.6319 11.3905 29.5 13.9512 29.5 16.8332V31.4165H33.6666V35.5832H0.333313ZM17 41.8332C15.8541 41.8332 14.8732 41.4252 14.0573 40.6092C13.2413 39.7932 12.8333 38.8123 12.8333 37.6665H21.1666C21.1666 38.8123 20.7587 39.7932 19.9427 40.6092C19.1267 41.4252 18.1458 41.8332 17 41.8332ZM8.66665 31.4165H25.3333V16.8332C25.3333 14.5415 24.5173 12.5797 22.8854 10.9478C21.2535 9.31581 19.2916 8.49984 17 8.49984C14.7083 8.49984 12.7465 9.31581 11.1146 10.9478C9.48262 12.5797 8.66665 14.5415 8.66665 16.8332V31.4165Z" fill="#0D0850"/>
</svg>
