<svg width="35" height="34" viewBox="0 0 35 34" fill="none" xmlns="http://www.w3.org/2000/svg">
<path d="M32.2778 33.8L20.0278 22.04C19.0556 22.7866 17.9375 23.3777 16.6736 23.8133C15.4097 24.2488 14.0648 24.4666 12.6389 24.4666C9.10648 24.4666 6.1169 23.2922 3.67014 20.9433C1.22338 18.5944 0 15.7244 0 12.3333C0 8.94217 1.22338 6.07217 3.67014 3.72328C6.1169 1.3744 9.10648 0.199951 12.6389 0.199951C16.1713 0.199951 19.1609 1.3744 21.6076 3.72328C24.0544 6.07217 25.2778 8.94217 25.2778 12.3333C25.2778 13.7022 25.0509 14.9933 24.5972 16.2066C24.1435 17.42 23.5278 18.4933 22.75 19.4266L35 31.1866L32.2778 33.8ZM12.6389 20.7333C15.0694 20.7333 17.1354 19.9166 18.8368 18.2833C20.5382 16.65 21.3889 14.6666 21.3889 12.3333C21.3889 9.99995 20.5382 8.01662 18.8368 6.38329C17.1354 4.74995 15.0694 3.93328 12.6389 3.93328C10.2083 3.93328 8.14236 4.74995 6.44097 6.38329C4.73958 8.01662 3.88889 9.99995 3.88889 12.3333C3.88889 14.6666 4.73958 16.65 6.44097 18.2833C8.14236 19.9166 10.2083 20.7333 12.6389 20.7333Z" fill="#0D0850"/>
</svg>
