<svg width="10" height="12" viewBox="0 0 10 12" fill="none" xmlns="http://www.w3.org/2000/svg">
<path d="M1 4.45488C1 2.82623 1 2.01191 1.43934 1.50596C1.87868 1 2.58579 1 4 1H6C7.41421 1 8.12132 1 8.56066 1.50596C9 2.01191 9 2.82623 9 4.45488V8.3863C9 9.93137 9 10.7039 8.57785 10.9402C8.15571 11.1765 7.62823 10.6992 6.57327 9.74462L6.23564 9.43912C5.64246 8.90238 5.34586 8.634 5 8.634C4.65414 8.634 4.35754 8.90238 3.76436 9.43912L3.42673 9.74462C2.37177 10.6992 1.84429 11.1765 1.42215 10.9402C1 10.7039 1 9.93137 1 8.3863V4.45488Z" stroke="#222222" stroke-width="2"/>
</svg>
