<svg width="38" height="37" viewBox="0 0 38 37" fill="none" xmlns="http://www.w3.org/2000/svg">
<path d="M1.33331 13.0921C1.33331 7.39181 1.33331 4.54169 3.25542 2.77084C5.17754 1 8.27113 1 14.4583 1H23.2083C29.3955 1 32.4891 1 34.4112 2.77084C36.3333 4.54169 36.3333 7.39181 36.3333 13.0921V26.8521C36.3333 32.2598 36.3333 34.9637 34.4864 35.7907C32.6395 36.6177 30.3318 34.9472 25.7164 31.6062L24.2392 30.5369C21.6441 28.6583 20.3465 27.719 18.8333 27.719C17.3202 27.719 16.0226 28.6583 13.4274 30.5369L11.9503 31.6062C7.33482 34.9472 5.0271 36.6177 3.18021 35.7907C1.33331 34.9637 1.33331 32.2598 1.33331 26.8521V13.0921Z" stroke="#33363F" stroke-width="2"/>
</svg>
