<?xml version="1.0" encoding="UTF-8" standalone="no"?>
<svg
   width="24"
   height="24"
   viewBox="0 0 24 24"
   fill="none"
   version="1.1"
   id="svg4"
   sodipodi:docname="Password.svg"
   inkscape:version="1.4 (86a8ad7, 2024-10-11)"
   xmlns:inkscape="http://www.inkscape.org/namespaces/inkscape"
   xmlns:sodipodi="http://sodipodi.sourceforge.net/DTD/sodipodi-0.dtd"
   xmlns="http://www.w3.org/2000/svg"
   xmlns:svg="http://www.w3.org/2000/svg">
  <defs
     id="defs4" />
  <sodipodi:namedview
     id="namedview4"
     pagecolor="#ffffff"
     bordercolor="#000000"
     borderopacity="0.25"
     inkscape:showpageshadow="2"
     inkscape:pageopacity="0.0"
     inkscape:pagecheckerboard="0"
     inkscape:deskcolor="#d1d1d1"
     inkscape:zoom="11.534679"
     inkscape:cx="11.010276"
     inkscape:cy="26.225263"
     inkscape:window-width="1920"
     inkscape:window-height="1001"
     inkscape:window-x="-9"
     inkscape:window-y="-9"
     inkscape:window-maximized="1"
     inkscape:current-layer="svg4" />
  <path
     d="M20 16H4"
     stroke="#33363F"
     stroke-width="2"
     stroke-linecap="round"
     id="path1"
     style="stroke:#010f11;stroke-opacity:1" />
  <path
     d="M12 9L12.2865 10.0038L13.299 9.75L12.5729 10.5L13.299 11.25L12.2865 10.9962L12 12L11.7135 10.9962L10.701 11.25L11.4271 10.5L10.701 9.75L11.7135 10.0038L12 9Z"
     stroke="#33363F"
     stroke-width="2"
     stroke-linecap="round"
     stroke-linejoin="round"
     id="path2"
     style="stroke:#010f11;stroke-opacity:1" />
  <path
     d="M5.5 9L5.78647 10.0038L6.79904 9.75L6.07295 10.5L6.79904 11.25L5.78647 10.9962L5.5 12L5.21353 10.9962L4.20096 11.25L4.92705 10.5L4.20096 9.75L5.21353 10.0038L5.5 9Z"
     stroke="#33363F"
     stroke-width="2"
     stroke-linecap="round"
     stroke-linejoin="round"
     id="path3"
     style="stroke:#010f11;stroke-opacity:1" />
  <path
     d="M18.5 9L18.7865 10.0038L19.799 9.75L19.0729 10.5L19.799 11.25L18.7865 10.9962L18.5 12L18.2135 10.9962L17.201 11.25L17.9271 10.5L17.201 9.75L18.2135 10.0038L18.5 9Z"
     stroke="#33363F"
     stroke-width="2"
     stroke-linecap="round"
     stroke-linejoin="round"
     id="path4"
     style="stroke:#010f11;stroke-opacity:1" />
</svg>
